<?xml version="1.0" encoding="UTF-8"?>
<svg id="Layer_2" data-name="Layer 2" xmlns="http://www.w3.org/2000/svg" viewBox="0 0 511.61 64.92">
  <defs>
    <style>
      .cls-1 {
        fill: #faf9f6;
        stroke-width: 0px;
      }
    </style>
  </defs>
  <g id="Layer_1-2" data-name="Layer 1">
    <g>
      <path class="cls-1" d="M0,56.44v-1.44c1.63-.1,2.85-.29,3.67-.58.82-.29,1.36-.86,1.62-1.73.26-.86.4-2.16.4-3.89V13.1c0-1.77-.14-3.08-.43-3.92-.29-.84-.84-1.42-1.66-1.73-.82-.31-2.02-.49-3.6-.54v-1.44c1.1.05,2.53.1,4.28.14,1.75.05,3.64.07,5.65.07,1.82,0,3.61-.02,5.36-.07,1.75-.05,3.2-.1,4.36-.14v1.44c-1.58.05-2.78.23-3.6.54-.82.31-1.37.89-1.66,1.73-.29.84-.43,2.15-.43,3.92v35.71c0,1.73.14,3.02.43,3.89.29.86.84,1.44,1.66,1.73.82.29,2.02.48,3.6.58v1.44c-1.15-.1-2.6-.16-4.36-.18-1.75-.02-3.54-.04-5.36-.04-2.02,0-3.9.01-5.65.04-1.75.02-3.18.08-4.28.18ZM10.73,31.53v-1.44h28.44v1.44H10.73ZM30.24,56.44v-1.44c1.63-.1,2.86-.29,3.67-.58.82-.29,1.36-.86,1.62-1.73.26-.86.4-2.16.4-3.89V13.1c0-1.77-.14-3.08-.43-3.92-.29-.84-.84-1.42-1.66-1.73-.82-.31-2.02-.49-3.6-.54v-1.44c1.2.05,2.7.1,4.5.14,1.8.05,3.59.07,5.36.07,2.02,0,3.89-.02,5.62-.07,1.73-.05,3.12-.1,4.18-.14v1.44c-1.58.05-2.78.23-3.6.54-.82.31-1.37.89-1.66,1.73-.29.84-.43,2.15-.43,3.92v35.71c0,1.73.14,3.02.43,3.89.29.86.84,1.44,1.66,1.73.82.29,2.02.48,3.6.58v1.44c-1.06-.1-2.45-.16-4.18-.18-1.73-.02-3.6-.04-5.62-.04-1.78,0-3.56.01-5.36.04-1.8.02-3.3.08-4.5.18Z"/>
      <path class="cls-1" d="M92.3,5.46c-.19,1.82-.32,3.59-.4,5.29-.07,1.7-.11,3.01-.11,3.92s.02,1.78.07,2.59c.05.82.1,1.49.14,2.02h-1.66c-.34-3.07-.85-5.5-1.55-7.27-.7-1.78-1.73-3.04-3.1-3.78-1.37-.74-3.28-1.12-5.72-1.12h-4.97c-1.54,0-2.7.13-3.49.4-.79.26-1.33.79-1.62,1.58s-.43,2.03-.43,3.71v36.29c0,1.63.14,2.86.43,3.67.29.82.83,1.36,1.62,1.62.79.26,1.96.4,3.49.4h4.68c2.74,0,4.91-.43,6.52-1.3,1.61-.86,2.83-2.28,3.67-4.25.84-1.97,1.48-4.66,1.91-8.06h1.66c-.14,1.39-.22,3.22-.22,5.47,0,.96.04,2.35.11,4.18.07,1.83.2,3.7.4,5.62-2.45-.1-5.21-.16-8.28-.18-3.07-.02-5.81-.04-8.21-.04h-4.25c-1.73,0-3.59.01-5.58.04-1.99.02-4.01.05-6.05.07-2.04.02-4,.06-5.87.11v-1.44c1.63-.1,2.85-.29,3.67-.58.82-.29,1.36-.86,1.62-1.73.26-.86.4-2.16.4-3.89V13.1c0-1.77-.14-3.08-.43-3.92-.29-.84-.84-1.42-1.66-1.73-.82-.31-2.02-.49-3.6-.54v-1.44c1.87.05,3.83.08,5.87.11,2.04.02,4.06.05,6.05.07,1.99.02,3.85.04,5.58.04h4.25c2.21,0,4.72-.01,7.52-.04,2.81-.02,5.32-.08,7.52-.18ZM80.35,30.09v1.44h-13.03v-1.44h13.03ZM82.44,20.58c-.19,2.74-.28,4.82-.25,6.26.02,1.44.04,2.76.04,3.96s.02,2.52.07,3.96c.05,1.44.17,3.53.36,6.26h-1.66c-.24-1.58-.55-3.11-.94-4.57-.38-1.46-1.07-2.65-2.05-3.56-.98-.91-2.51-1.37-4.57-1.37v-1.44c1.54,0,2.75-.31,3.64-.94.89-.62,1.57-1.44,2.05-2.45.48-1.01.83-2.05,1.04-3.13.22-1.08.42-2.08.61-2.99h1.66Z"/>
      <path class="cls-1" d="M119.59,5.46v1.44c-1.58.05-2.78.23-3.6.54-.82.31-1.37.89-1.66,1.73-.29.84-.43,2.15-.43,3.92v35.71c0,1.73.14,3.02.43,3.89.29.86.84,1.44,1.66,1.73.82.29,2.02.48,3.6.58v1.44c-1.15-.1-2.6-.16-4.36-.18-1.75-.02-3.54-.04-5.36-.04-2.02,0-3.9.01-5.65.04-1.75.02-3.18.08-4.28.18v-1.44c1.63-.1,2.85-.29,3.67-.58.82-.29,1.36-.86,1.62-1.73.26-.86.4-2.16.4-3.89V13.1c0-1.77-.14-3.08-.43-3.92-.29-.84-.84-1.42-1.66-1.73-.82-.31-2.02-.49-3.6-.54v-1.44c1.1.05,2.53.1,4.28.14,1.75.05,3.64.07,5.65.07,1.82,0,3.61-.02,5.36-.07,1.75-.05,3.2-.1,4.36-.14Z"/>
      <path class="cls-1" d="M125.21,5.46c1.1.05,2.53.1,4.28.14,1.75.05,3.49.07,5.22.07,2.3,0,4.5-.02,6.59-.07,2.09-.05,3.56-.07,4.43-.07,4.08,0,7.48.53,10.19,1.58,2.71,1.06,4.73,2.53,6.05,4.43,1.32,1.9,1.98,4.07,1.98,6.52,0,1.49-.3,3.06-.9,4.72-.6,1.66-1.65,3.19-3.13,4.61-1.49,1.42-3.5,2.58-6.05,3.49-2.54.91-5.78,1.37-9.72,1.37h-6.91v-1.44h6.19c3.22,0,5.68-.54,7.38-1.62,1.7-1.08,2.86-2.52,3.46-4.32.6-1.8.9-3.8.9-6.01,0-3.79-.82-6.73-2.45-8.82-1.63-2.09-4.46-3.13-8.5-3.13-2.06,0-3.42.41-4.07,1.22-.65.82-.97,2.47-.97,4.97v35.71c0,1.73.14,3.02.43,3.89.29.86.84,1.44,1.66,1.73.82.29,2.02.48,3.6.58v1.44c-1.15-.1-2.6-.16-4.36-.18-1.75-.02-3.54-.04-5.36-.04-2.02,0-3.9.01-5.65.04-1.75.02-3.18.08-4.28.18v-1.44c1.63-.1,2.85-.29,3.67-.58.82-.29,1.36-.86,1.62-1.73.26-.86.4-2.16.4-3.89V13.1c0-1.77-.13-3.08-.4-3.92-.26-.84-.82-1.42-1.66-1.73-.84-.31-2.05-.49-3.64-.54v-1.44ZM137.37,31.02c2.45.1,4.42.2,5.9.32,1.49.12,2.74.23,3.74.32,1.01.1,1.94.22,2.81.36,3.6.48,6.23,1.44,7.88,2.88,1.66,1.44,2.8,3.65,3.42,6.62l1.8,7.34c.43,2.06.9,3.53,1.4,4.39.5.86,1.26,1.3,2.27,1.3.77-.05,1.4-.28,1.91-.68.5-.41,1.04-.97,1.62-1.69l1.01.79c-1.1,1.49-2.26,2.6-3.46,3.35-1.2.74-2.81,1.12-4.82,1.12s-3.83-.54-5.29-1.62c-1.46-1.08-2.51-3.13-3.13-6.16l-1.44-7.2c-.43-2.06-.91-3.85-1.44-5.36-.53-1.51-1.26-2.7-2.2-3.56s-2.29-1.3-4.07-1.3h-7.78l-.14-1.22Z"/>
      <path class="cls-1" d="M192.74,5.46v1.44c-1.63.05-2.87.23-3.71.54-.84.31-1.4.89-1.69,1.73-.29.84-.43,2.15-.43,3.92v36c0,1.63.13,2.86.4,3.67.26.82.79,1.36,1.58,1.62.79.26,1.93.4,3.42.4h4.68c2.06,0,3.8-.29,5.22-.86,1.42-.58,2.6-1.44,3.56-2.59.96-1.15,1.7-2.64,2.23-4.46.53-1.82.94-3.96,1.22-6.41h1.66c-.14,1.54-.22,3.55-.22,6.05,0,.96.04,2.36.11,4.21.07,1.85.2,3.76.4,5.72-2.45-.1-5.21-.16-8.28-.18-3.07-.02-5.81-.04-8.21-.04h-4.25c-1.73,0-3.59.01-5.58.04-1.99.02-4.01.05-6.05.07-2.04.02-4,.06-5.87.11v-1.44c1.63-.1,2.85-.29,3.67-.58.82-.29,1.36-.86,1.62-1.73.26-.86.4-2.16.4-3.89V13.1c0-1.77-.13-3.08-.4-3.92-.26-.84-.82-1.42-1.66-1.73-.84-.31-2.05-.49-3.64-.54v-1.44c1.1.05,2.53.1,4.28.14,1.75.05,3.64.07,5.65.07,1.82,0,3.64-.02,5.44-.07,1.8-.05,3.28-.1,4.43-.14Z"/>
      <path class="cls-1" d="M239.41,4.46c5.05,0,9.45,1.03,13.23,3.1,3.77,2.06,6.7,5.03,8.79,8.89,2.09,3.86,3.13,8.56,3.13,14.08s-1.07,10.08-3.21,14.11c-2.14,4.03-5.11,7.18-8.91,9.43-3.8,2.26-8.17,3.38-13.11,3.38s-9.46-1.03-13.23-3.1c-3.77-2.06-6.7-5.04-8.79-8.93-2.09-3.89-3.13-8.57-3.13-14.04s1.08-10.08,3.25-14.11c2.17-4.03,5.13-7.18,8.91-9.43,3.77-2.26,8.13-3.38,13.07-3.38ZM239.05,5.75c-3.82,0-7.15,1.08-9.99,3.24-2.84,2.16-5.03,5.14-6.57,8.93-1.54,3.79-2.31,8.18-2.31,13.18s.86,9.52,2.59,13.28c1.73,3.77,4.07,6.67,7.03,8.71,2.96,2.04,6.26,3.06,9.9,3.06,3.82,0,7.14-1.08,9.94-3.24,2.81-2.16,4.99-5.15,6.57-8.96,1.57-3.82,2.36-8.2,2.36-13.14s-.86-9.58-2.59-13.32c-1.73-3.74-4.07-6.64-7.03-8.68-2.96-2.04-6.26-3.06-9.9-3.06Z"/>
      <path class="cls-1" d="M271.41,4.46c5.05,0,9.45,1.03,13.23,3.1,3.77,2.06,6.7,5.03,8.79,8.89,2.09,3.86,3.13,8.56,3.13,14.08s-1.07,10.08-3.21,14.11c-2.14,4.03-5.11,7.18-8.91,9.43-3.8,2.26-8.17,3.38-13.11,3.38s-9.46-1.03-13.23-3.1c-3.77-2.06-6.7-5.04-8.79-8.93-2.09-3.89-3.13-8.57-3.13-14.04s1.08-10.08,3.25-14.11c2.17-4.03,5.13-7.18,8.91-9.43,3.77-2.26,8.13-3.38,13.07-3.38ZM271.05,5.75c-3.82,0-7.15,1.08-9.99,3.24-2.84,2.16-5.03,5.14-6.57,8.93-1.54,3.79-2.31,8.18-2.31,13.18s.86,9.52,2.59,13.28c1.73,3.77,4.07,6.67,7.03,8.71,2.96,2.04,6.26,3.06,9.9,3.06,3.82,0,7.14-1.08,9.94-3.24,2.81-2.16,4.99-5.15,6.57-8.96,1.57-3.82,2.36-8.2,2.36-13.14s-.86-9.58-2.59-13.32c-1.73-3.74-4.07-6.64-7.03-8.68-2.96-2.04-6.26-3.06-9.9-3.06Z"/>
      <path class="cls-1" d="M355.47,5.46v1.44c-1.63.05-2.86.23-3.67.54-.82.31-1.36.89-1.62,1.73-.26.84-.4,2.15-.4,3.92v35.71c0,1.73.13,3.02.4,3.89.26.86.8,1.44,1.62,1.73.82.29,2.04.48,3.67.58v1.44c-1.2-.1-2.69-.16-4.46-.18-1.78-.02-3.58-.04-5.4-.04-2.02,0-3.91.01-5.69.04-1.78.02-3.19.08-4.25.18v-1.44c1.63-.1,2.87-.29,3.71-.58.84-.29,1.4-.86,1.69-1.73.29-.86.43-2.16.43-3.89V9.42l.36.14-17.71,47.16h-1.15l-18.58-46.66v36.86c0,2.02.14,3.59.43,4.72.29,1.13.91,1.93,1.87,2.41.96.48,2.42.79,4.39.94v1.44c-.91-.1-2.08-.16-3.49-.18-1.42-.02-2.75-.04-4-.04s-2.4.01-3.6.04c-1.2.02-2.18.08-2.95.18v-1.44c1.58-.14,2.78-.44,3.6-.9.82-.46,1.37-1.24,1.66-2.34.29-1.1.43-2.62.43-4.54V13.1c0-1.77-.14-3.08-.43-3.92-.29-.84-.84-1.42-1.66-1.73-.82-.31-2.02-.49-3.6-.54v-1.44c.77.05,1.75.1,2.95.14,1.2.05,2.4.07,3.6.07,1.39,0,2.8-.02,4.21-.07,1.42-.05,2.63-.1,3.64-.14l15.91,40.9-1.37.94,15.62-41.62h3.96c1.82,0,3.62-.02,5.4-.07,1.77-.05,3.26-.1,4.46-.14Z"/>
    </g>
    <g>
      <path class="cls-1" d="M375.91,20.63l.11,3.25,1.32-3.22,7.14-16.18h1.67l2.06,16.33.26,3.12,1.24-3.42,6.36-16.03h1.94l-8.93,22.04h-1.77l-2.16-17.32-.17-2.03-.85,2.1-7.66,17.24h-1.77l-2.03-22.04h1.85l1.41,16.15Z"/>
      <path class="cls-1" d="M411.64,15.95h-9.99l-1.57,8.99h11.5l-.27,1.57h-13.35l3.83-22.04h13.27l-.29,1.57h-11.41l-1.45,8.33h10l-.27,1.57Z"/>
      <path class="cls-1" d="M415.21,26.52l3.83-22.04,5.74.02c1.71,0,3.18.44,4.43,1.31,1.25.87,2.16,2.08,2.72,3.62.56,1.54.72,3.23.49,5.08l-.27,1.83c-.46,3.06-1.69,5.52-3.66,7.39-1.98,1.87-4.41,2.8-7.28,2.8h-5.99ZM420.61,6.05l-3.28,18.88,3.94.02c1.54,0,2.95-.35,4.22-1.06,1.27-.71,2.32-1.7,3.16-2.99.83-1.29,1.38-2.74,1.63-4.36.26-1.62.39-2.74.41-3.35.02-.62-.02-1.21-.1-1.79-.23-1.61-.85-2.9-1.85-3.84-1-.95-2.29-1.44-3.88-1.48l-4.25-.02Z"/>
      <path class="cls-1" d="M435.05,26.52l3.83-22.04,5.74.02c1.71,0,3.18.44,4.43,1.31,1.25.87,2.16,2.08,2.72,3.62.56,1.54.72,3.23.49,5.08l-.27,1.83c-.46,3.06-1.69,5.52-3.66,7.39-1.98,1.87-4.41,2.8-7.28,2.8h-5.99ZM440.46,6.05l-3.28,18.88,3.94.02c1.54,0,2.95-.35,4.22-1.06,1.27-.71,2.32-1.7,3.16-2.99.83-1.29,1.38-2.74,1.63-4.36.26-1.62.39-2.74.41-3.35.02-.62-.02-1.21-.1-1.79-.23-1.61-.85-2.9-1.85-3.84-1-.95-2.29-1.44-3.88-1.48l-4.25-.02Z"/>
      <path class="cls-1" d="M457.14,26.52h-1.85l3.83-22.04h1.85l-3.83,22.04Z"/>
      <path class="cls-1" d="M479.02,26.52h-1.79l-9.04-18.89-3.29,18.89h-1.86l3.83-22.04h1.79l9.05,18.91,3.28-18.91h1.83l-3.81,22.04Z"/>
      <path class="cls-1" d="M500.56,23.9c-.75.96-1.82,1.69-3.22,2.2-1.4.51-2.95.75-4.67.72-2.05-.02-3.71-.72-4.98-2.1-1.27-1.38-1.97-3.22-2.09-5.52-.05-.83-.02-1.63.09-2.42l.38-2.51c.47-3.09,1.59-5.55,3.35-7.39,1.76-1.84,3.95-2.74,6.56-2.69,2.02.04,3.63.64,4.84,1.79s1.85,2.73,1.91,4.72h-1.82c-.07-1.53-.53-2.73-1.39-3.59-.86-.86-2.06-1.31-3.62-1.35-2.06-.05-3.8.69-5.23,2.23-1.43,1.54-2.35,3.65-2.76,6.34l-.36,2.37c-.1.66-.14,1.33-.12,2.03.03,2,.51,3.59,1.45,4.75s2.22,1.76,3.84,1.78c2.59.05,4.59-.59,5.98-1.91l1-5.7h-5.74l.27-1.57h7.58l-1.27,7.84Z"/>
      <path class="cls-1" d="M384.45,46.21h-9.96l-1.8,10.31h-1.85l3.83-22.04h13.29l-.29,1.57h-11.43l-1.5,8.58h9.99l-.29,1.57Z"/>
      <path class="cls-1" d="M390.14,56.52h-1.85l3.83-22.04h1.85l-3.83,22.04Z"/>
      <path class="cls-1" d="M398.19,54.95h10.57l-.27,1.57h-12.43l3.83-22.04h1.86l-3.56,20.46Z"/>
      <path class="cls-1" d="M418.28,34.48l4.5,19.41,11.26-19.41h2.5l-3.83,22.04h-1.85l1.68-9.67,1.8-9.54-11.22,19.21h-1.42l-4.57-19.36-1.56,9.78-1.67,9.58h-1.85l3.83-22.04h2.39Z"/>
      <path class="cls-1" d="M451.29,51c.23-1.9-.78-3.29-3.04-4.18l-2.89-1.05-.94-.38c-2.87-1.22-4.19-3.02-3.98-5.4.09-1.17.5-2.2,1.24-3.09.74-.89,1.71-1.57,2.91-2.05,1.21-.48,2.49-.7,3.84-.67,1.3.03,2.46.33,3.49.9,1.02.57,1.79,1.35,2.3,2.34.51.99.71,2.1.6,3.35h-1.86c.14-1.5-.21-2.7-1.05-3.6-.84-.9-2.03-1.37-3.56-1.41-1.59-.02-2.96.35-4.09,1.1-1.14.75-1.78,1.78-1.95,3.09-.13,1.04.17,1.93.92,2.66.74.73,2.03,1.37,3.87,1.92,2.34.75,3.97,1.64,4.88,2.68.91,1.04,1.31,2.29,1.19,3.75-.11,1.21-.53,2.26-1.27,3.16-.74.89-1.72,1.58-2.95,2.05s-2.55.7-3.97.67c-1.4-.01-2.67-.3-3.79-.86s-1.97-1.34-2.53-2.32c-.56-.98-.79-2.12-.67-3.41h1.85c-.15,1.54.26,2.76,1.23,3.67s2.31,1.37,4,1.39c1.7.02,3.12-.36,4.28-1.15,1.16-.79,1.81-1.83,1.96-3.12Z"/>
    </g>
  </g>
</svg>